<?xml version="1.0" encoding="utf-8"?><!DOCTYPE svg PUBLIC "-//W3C//DTD SVG 1.1//EN" "http://www.w3.org/Graphics/SVG/1.1/DTD/svg11.dtd"><svg id="__44" width="256" height="256" style="width:256px;height:256px;" version="1.1" xmlns="http://www.w3.org/2000/svg" viewBox="0 0 1024 1024" enable-background="new 0 0 1024 1024" xml:space="preserve"><path fill="#666" d="M289.42 476.01 l2.94 2.93 q11.75 13.23 11.75 33.79 q0 22.04 -14.69 38.2 l-267.38 324.69 q-20.57 24.97 -22.04 58.76 q1.47 38.2 26.44 63.18 q24.98 24.97 63.18 26.44 q45.54 -1.47 70.52 -35.26 l364.35 -443.68 q11.75 -14.7 13.22 -33.79 q0 -17.63 -11.75 -30.86 l-364.35 -445.15 q-11.76 -16.16 -30.86 -26.45 q-19.09 -8.81 -39.66 -8.81 q-38.2 1.47 -63.18 26.44 q-24.97 24.98 -26.44 63.18 q1.47 33.79 22.04 58.76 l265.91 327.63 l0 0 Z"/></svg>